<svg class="svg-icon" style="width: 1em; height: 1em;vertical-align: middle;fill: currentColor;overflow: hidden;" viewBox="0 0 1024 1024" version="1.1" xmlns="http://www.w3.org/2000/svg"><path d="M417.28 164.1984c-12.6464 0-25.2928 5.3248-37.6832 15.8208L169.7792 358.3488H76.8c-42.3424 0-76.8 34.4576-76.8 76.8v204.8c0 42.3424 34.4576 76.8 76.8 76.8h92.9792l209.8176 178.3296c12.3392 10.496 25.0368 15.8208 37.6832 15.8208a40.7552 40.7552 0 0 0 34.304-18.5344c6.0928-9.1648 9.216-20.8896 9.216-34.816v-640c0-36.864-21.8624-53.4016-43.52-53.4016zM51.2 640v-204.8a25.6 25.6 0 0 1 25.6-25.6H153.6v256H76.8a25.6 25.6 0 0 1-25.6-25.6z m358.4 213.4528l-204.8-174.08V395.8272l204.8-174.08v631.7056z" fill="white" /></svg>